<!DOCTYPE svg PUBLIC "-//W3C//DTD SVG 1.1//EN" "http://www.w3.org/Graphics/SVG/1.1/DTD/svg11.dtd">

<!-- Uploaded to: SVG Repo, www.svgrepo.com, Transformed by: SVG Repo Mixer Tools -->
<svg fill="#ffffff" version="1.1" id="Capa_1" xmlns="http://www.w3.org/2000/svg" xmlns:xlink="http://www.w3.org/1999/xlink" width="110px" height="110px" viewBox="-122.13 -122.13 651.36 651.36" xml:space="preserve" stroke="#ffffff">

<g id="SVGRepo_bgCarrier" stroke-width="0" transform="translate(0,0), scale(1)">

<rect x="-122.13" y="-122.13" width="651.36" height="651.36" rx="325.68" fill="#1aa7d5" strokewidth="0"/>

</g>

<g id="SVGRepo_tracerCarrier" stroke-linecap="round" stroke-linejoin="round" stroke="#CCCCCC" stroke-width="0.814192"/>

<g id="SVGRepo_iconCarrier"> <g> <g> <path d="M402.115,84.008L323.088,4.981C319.899,1.792,315.574,0,311.063,0H17.005C7.613,0,0,7.614,0,17.005v373.086 c0,9.392,7.613,17.005,17.005,17.005h373.086c9.392,0,17.005-7.613,17.005-17.005V96.032 C407.096,91.523,405.305,87.197,402.115,84.008z M300.664,163.567H67.129V38.862h233.535V163.567z"/> <path d="M214.051,148.16h43.08c3.131,0,5.668-2.538,5.668-5.669V59.584c0-3.13-2.537-5.668-5.668-5.668h-43.08 c-3.131,0-5.668,2.538-5.668,5.668v82.907C208.383,145.622,210.92,148.16,214.051,148.16z"/> </g> </g> </g>

</svg>